<?xml version="1.0" encoding="utf-8"?>
<!-- Generator: Adobe Illustrator 18.1.0, SVG Export Plug-In . SVG Version: 6.00 Build 0)  -->
<!DOCTYPE svg PUBLIC "-//W3C//DTD SVG 1.1//EN" "http://www.w3.org/Graphics/SVG/1.1/DTD/svg11.dtd">
<svg version="1.1" xmlns="http://www.w3.org/2000/svg" xmlns:xlink="http://www.w3.org/1999/xlink" x="0px" y="0px"
	 viewBox="0 0 388 122.2" enable-background="new 0 0 388 122.2" xml:space="preserve">
<g id="Layer_1">
</g>
<g id="Layer_2">
	<g>
		<path fill="#FFFFFF" d="M0,24.8C0,10.1,10.7,0,24.3,0C32,0,37.7,3.4,41.8,8.5l-3.5,2.2c-3-4.2-8.3-7-14-7c-11.3,0-20,8.6-20,21.1
			c0,12.4,8.7,21.1,20,21.1c5.8,0,11-2.8,14-7l3.5,2.2c-4.2,5.3-9.9,8.6-17.5,8.6C10.7,49.7,0,39.6,0,24.8z"/>
		<path fill="#FFFFFF" d="M84.8,48.8L80.1,37H54.6l-4.8,11.8h-4.8l19.7-48h5.1l19.7,48H84.8z M67.3,5.2L56,33.3h22.7L67.3,5.2z"/>
		<path fill="#FFFFFF" d="M137.4,48.8V6.4l-17.5,42.4h-1.6L100.7,6.4v42.4h-4.1v-48h6.1l16.3,39.6l16.3-39.6h6.2v48H137.4z"/>
		<path fill="#FFFFFF" d="M153.5,48.8v-48h19.7c8.1,0,13.3,4.7,13.3,12.2c0,6-4.1,10.2-8.4,11c5.1,0.8,9.4,6.1,9.4,11.8
			c0,8-5.2,13-13.8,13H153.5z M182.2,13.5c0-4.9-3.2-8.9-9.4-8.9h-15.1v17.8h15.1C178.9,22.3,182.2,18.4,182.2,13.5z M183.1,35.6
			c0-4.9-3.4-9.5-10.1-9.5h-15.4v19H173C179.4,45.1,183.1,41.4,183.1,35.6z"/>
		<path fill="#FFFFFF" d="M225.9,48.8l-13.5-19.9h-10.6v19.9h-4.1v-48h17.9c8.3,0,14.6,5.3,14.6,14c0,8.7-6.2,13.5-13.3,13.8
			l13.9,20.2H225.9z M225.9,14.8c0-6-4.3-10.3-10.7-10.3h-13.5v20.7h13.5C221.6,25.2,225.9,20.9,225.9,14.8z"/>
		<path fill="#FFFFFF" d="M240.5,48.8v-48h4.1v48H240.5z"/>
		<path fill="#FFFFFF" d="M256.5,48.8v-48h15.3c14.9,0,24.3,10.9,24.3,24.1c0,13.3-9.4,24-24.3,24H256.5z M291.8,24.8
			c0-11.2-7.2-20.3-19.9-20.3h-11.2v40.5h11.2C284.5,45.1,291.8,36.1,291.8,24.8z"/>
		<path fill="#FFFFFF" d="M304.6,24.8C304.6,10,315.4,0,328.9,0c7.9,0,13.7,3.2,18.1,8.2l-3.1,2.2c-3.4-4-8.9-6.7-15-6.7
			c-11.3,0-20,8.6-20,21.1c0,12.4,8.7,21.2,20,21.2c6.4,0,11.4-3.2,14.1-5.8V28.7h-18.1V25h22.3v16.8c-4.2,4.8-10.7,8-18.2,8
			C315.4,49.8,304.6,39.7,304.6,24.8z"/>
		<path fill="#FFFFFF" d="M357.5,48.8v-48H388v3.7h-26.4v17.8h25.9v3.7h-25.9v19H388v3.7H357.5z"/>
		<path fill="#FFFFFF" d="M94.6,97.2c0-14.8,10.9-24.8,24.3-24.8c7.9,0,13.7,3.2,18.1,8.2l-3.1,2.2c-3.4-4-8.9-6.7-15-6.7
			c-11.3,0-20,8.6-20,21.1c0,12.4,8.7,21.2,20,21.2c6.4,0,11.4-3.2,14.1-5.8v-11.5h-18.1v-3.7h22.3v16.8c-4.2,4.8-10.7,8-18.2,8
			C105.5,122.2,94.6,112.1,94.6,97.2z"/>
		<path fill="#FFFFFF" d="M147.6,102.8V73.2h4.2v29.5c0,9.7,5.1,15.6,14.5,15.6c9.5,0,14.5-5.9,14.5-15.6V73.2h4.2v29.6
			c0,11.9-6.3,19.3-18.7,19.3C154,122.1,147.6,114.6,147.6,102.8z"/>
		<path fill="#FFFFFF" d="M197,121.2v-48h4.1v48H197z"/>
		<path fill="#FFFFFF" d="M213.1,121.2v-48h15.3c14.9,0,24.3,10.9,24.3,24.1c0,13.3-9.4,24-24.3,24H213.1z M248.4,97.2
			c0-11.2-7.2-20.3-19.9-20.3h-11.2v40.5h11.2C241.1,117.5,248.4,108.5,248.4,97.2z"/>
		<path fill="#FFFFFF" d="M262.9,121.2v-48h30.5v3.7H267v17.8h25.8v3.7H267v19h26.4v3.7H262.9z"/>
		<line fill="#FFFFFF" x1="330" y1="96.8" x2="388" y2="96.8"/>
		<rect x="330" y="94.8" fill="#FFFFFF" width="58" height="4"/>
		<line fill="#FFFFFF" x1="1" y1="96.8" x2="59" y2="96.8"/>
		<rect x="1" y="94.8" fill="#FFFFFF" width="58" height="4"/>
	</g>
</g>
</svg>
